<svg version="1.1" id="Layer_1" xmlns="http://www.w3.org/2000/svg" xmlns:xlink="http://www.w3.org/1999/xlink" x="0px" y="0px" viewBox="0 0 1964 757.3" style="enable-background:new 0 0 1964 757.3;" xml:space="preserve">
<g id="logo_black">
&#x9;<path id="c" fill="#100C2A" d="M1678,456.2c-7.8,14.8-24.3,23.9-43.6,23.9c-30,0-51.8-22.4-51.8-53.2s21.8-53.2,51.8-53.2&#xA;&#x9;&#x9;c19.2,0,35.3,8.9,43.6,23.9l54-31.4c-19.3-33.1-56.2-53.6-96.8-53.6c-65.4,0-114.7,49.1-114.7,114.2S1569.8,541,1635.2,541&#xA;&#x9;&#x9;c40.6,0,77.5-20.6,96.8-54L1678,456.2z"></path>
&#x9;<rect id="i_1_" x="1439" y="318.8" fill="#100C2A" width="62" height="216.2"></rect>
&#x9;<path id="i" fill="#100C2A" d="M1470,216.1c-20.4,0-37.6,17.2-37.6,37.6s17.2,37.6,37.6,37.6s37.6-17.2,37.6-37.6&#xA;&#x9;&#x9;S1490.4,216.1,1470,216.1z"></path>
&#x9;<path id="t" fill="#100C2A" d="M1331.8,519.9c16.2,14.6,44.1,19.5,87.8,15.2v-55.9c-19.9,1.1-32.8,0.3-39.9-6.3&#xA;&#x9;&#x9;c-3.7-3.5-5.5-8.3-5.5-14.8v-80h45.4v-59.4h-45.4v-75.9l-62,18.6v57.3H1277V378h35.2v80C1312.2,488.2,1318.4,507.8,1331.8,519.9z"></path>
&#x9;<path id="n" fill="#100C2A" d="M1163.4,374.6c23,0,41.7,18.7,41.7,41.7v118.6h62V402.1c0-49.4-40-89.5-89.4-89.5&#xA;&#x9;&#x9;c-18.9,0-37.4,6-52.7,17.2l-3.3,2.4v-13.4h-62V535h62V416.3C1121.8,393.3,1140.4,374.6,1163.4,374.6z"></path>
&#x9;<path id="a-2_1_" fill="#100C2A" d="M1029.2,534.9V318.8h-62v24.1l-3.6-4.1c-15-17.4-36.6-26.2-64.1-26.2c-27.5,0-53.4,11.7-72.8,32.9&#xA;&#x9;&#x9;c-19.7,21.5-30.5,50.4-30.5,81.4s10.8,59.9,30.5,81.4c19.4,21.2,45.2,32.9,72.8,32.9c27.6,0,49-8.8,64.1-26.2l3.6-4.1V535&#xA;&#x9;&#x9;L1029.2,534.9z M912.8,482.6c-32.6,0-54.5-22.4-54.5-55.8s21.9-55.8,54.5-55.8c32.6,0,54.5,22.4,54.5,55.8S945.3,482.6,912.8,482.6&#xA;&#x9;&#x9;z"></path>
&#x9;<polygon id="l_1_" fill="#100C2A" points="714.8,234.7 714.8,534.9 776.8,534.9 776.8,216.1 &#x9;"></polygon>
&#x9;<path id="a-1" fill="#100C2A" d="M684.3,534.9V318.8h-62v24.1l-3.6-4.1c-15.1-17.4-36.6-26.2-64.1-26.2c-27.5,0-53.4,11.7-72.8,32.9&#xA;&#x9;&#x9;c-19.6,21.5-30.5,50.4-30.5,81.4s10.8,59.9,30.5,81.4c19.4,21.2,45.2,32.9,72.8,32.9c27.5,0,49-8.8,64.1-26.2l3.6-4.1V535&#xA;&#x9;&#x9;L684.3,534.9z M567.8,482.6c-32.6,0-54.5-22.4-54.5-55.8s21.9-55.8,54.5-55.8c32.6,0,54.5,22.4,54.5,55.8S600.4,482.6,567.8,482.6z&#xA;&#x9;&#x9;"></path>
&#x9;<polygon id="v" fill="#100C2A" points="395.3,318.8 348,463 300.7,318.8 232,318.8 312,534.9 384,534.9 464,318.8 &#x9;"></polygon>
</g>
</svg>